# xmcd
#
# Track frame offsets:
#	150
#	17625
#	36572
#	58191
#	79208
#	100682
#	117219
#	136061
#	152468
#	166608
#	207545
#	224703
#
# Disc length: 3353 seconds
# Revision: 0
# Processed by: cddbd v1.5.2PL0 Copyright (c) Steve Scherf et al.
# Submitted via: dBpowerAMP V12.0
#
DISCID=a20d170c
DTITLE=Albert Castiglia - Living The Dream
DYEAR=2012
DGENRE=Blues
TTITLE0=Living the Dream
TTITLE1=The Man
TTITLE2=Freddie's Boogie
TTITLE3=Directly from My Heart To You
TTITLE4=Sometimes You Win
TTITLE5=Public Enemy Number 9
TTITLE6=Lovin Cup
TTITLE7=Fat Cat
TTITLE8=I Want Her For Myself
TTITLE9=Walk the Backstreets
TTITLE10=Call Me When You Need Me
TTITLE11=Parchman Farm
EXTD=
EXTT0=
EXTT1=
EXTT2=
EXTT3=
EXTT4=
EXTT5=
EXTT6=
EXTT7=
EXTT8=
EXTT9=
EXTT10=
EXTT11=
PLAYORDER=
